<svg width="24" height="24" viewBox="0 0 24 24" fill="none" xmlns="http://www.w3.org/2000/svg">
<g clip-path="url(#clip0_515_3938)">
<rect width="24" height="24" rx="12" fill="#FDF7D6"/>
<path d="M16.8 11.25V12.75H20V11.25H16.8ZM15.2 16.2075C15.968 16.74 16.968 17.445 17.76 18C18.08 17.6025 18.4 17.1975 18.72 16.8C17.928 16.245 16.928 15.54 16.16 15C15.84 15.405 15.52 15.81 15.2 16.2075ZM18.72 7.2C18.4 6.8025 18.08 6.3975 17.76 6C16.968 6.555 15.968 7.26 15.2 7.8C15.52 8.1975 15.84 8.6025 16.16 9C16.928 8.46 17.928 7.7625 18.72 7.2ZM5.6 9.75C4.72 9.75 4 10.425 4 11.25V12.75C4 13.575 4.72 14.25 5.6 14.25H6.4V17.25H8V14.25H8.8L12.8 16.5V7.5L8.8 9.75H5.6ZM14.8 12C14.8 11.0025 14.336 10.1025 13.6 9.4875V14.505C14.336 13.8975 14.8 12.9975 14.8 12Z" fill="#F4B356"/>
</g>
<defs>
<clipPath id="clip0_515_3938">
<rect width="24" height="24" rx="12" fill="white"/>
</clipPath>
</defs>
</svg>
