<svg width="24" height="24" viewBox="0 0 24 24" fill="none" xmlns="http://www.w3.org/2000/svg">
<g clip-path="url(#clip0_515_3948)">
<rect width="24" height="24" rx="12" fill="#F6DFE3"/>
<path d="M11.993 5C8.129 5 5 8.136 5 12C5 15.864 8.129 19 11.993 19C15.864 19 19 15.864 19 12C19 8.136 15.864 5 11.993 5ZM9.55 9.2C10.131 9.2 10.6 9.669 10.6 10.25C10.6 10.831 10.131 11.3 9.55 11.3C8.969 11.3 8.5 10.831 8.5 10.25C8.5 9.669 8.969 9.2 9.55 9.2ZM12 16.2C10.404 16.2 9.046 15.038 8.5 13.4H15.5C14.954 15.038 13.596 16.2 12 16.2ZM14.45 11.3C13.869 11.3 13.4 10.831 13.4 10.25C13.4 9.669 13.869 9.2 14.45 9.2C15.031 9.2 15.5 9.669 15.5 10.25C15.5 10.831 15.031 11.3 14.45 11.3Z" fill="#C72B32"/>
</g>
<defs>
<clipPath id="clip0_515_3948">
<rect width="24" height="24" rx="12" fill="white"/>
</clipPath>
</defs>
</svg>
