<svg width="24" height="24" viewBox="0 0 24 24" fill="none" xmlns="http://www.w3.org/2000/svg">
<g clip-path="url(#clip0_515_3956)">
<rect width="24" height="24" rx="12" fill="#FBE5FD"/>
<path d="M18.25 7.59979L12.75 4.41979C12.29 4.14979 11.71 4.14979 11.25 4.41979L5.75 7.59979C5.29 7.86979 5 8.35978 5 8.89978V15.2498C5 15.7898 5.29 16.2798 5.75 16.5498L11.25 19.7298C11.71 19.9998 12.29 19.9998 12.75 19.7298L18.25 16.5498C18.71 16.2798 19 15.7898 19 15.2498V8.89978C19 8.35978 18.71 7.86979 18.25 7.59979ZM7 14.9598V10.3398L11 12.6598V17.2698L7 14.9598ZM12 10.9298L8 8.60978L12 6.29979L16 8.60978L12 10.9298ZM13 17.2698V12.6598L17 10.3398V14.9598L13 17.2698Z" fill="#EE74F7"/>
</g>
<defs>
<clipPath id="clip0_515_3956">
<rect width="24" height="24" rx="12" fill="white"/>
</clipPath>
</defs>
</svg>
