<svg width="24" height="24" viewBox="0 0 24 24" fill="none" xmlns="http://www.w3.org/2000/svg">
<rect width="24" height="24" rx="12" fill="#E4F2D8"/>
<path d="M19.2002 15.7495L12.7502 10.912V10.2295C13.9877 9.86198 14.8502 8.60198 14.5727 7.19198C14.3777 6.20948 13.5977 5.39198 12.6152 5.16698C10.9052 4.77698 9.3752 6.07448 9.3752 7.72448H10.8752C10.8752 7.10198 11.3777 6.59948 12.0002 6.59948C12.6227 6.59948 13.1252 7.10198 13.1252 7.72448C13.1252 8.35448 12.6077 8.86448 11.9777 8.84948C11.5727 8.84198 11.2502 9.18698 11.2502 9.59198V10.912L4.80019 15.7495C4.22269 16.1845 4.53019 17.0995 5.25019 17.0995H12.0002H18.7502C19.4702 17.0995 19.7777 16.1845 19.2002 15.7495ZM7.50019 15.5995L12.0002 12.2245L16.5002 15.5995H7.50019Z" fill="#63B334"/>
</svg>
