<svg width="24" height="24" viewBox="0 0 24 24" fill="none" xmlns="http://www.w3.org/2000/svg">
<g clip-path="url(#clip0_792_4638)">
<rect width="24" height="24" rx="12" fill="#FFECB3"/>
<path d="M19.7815 8.26172L14.914 6C14.4115 6.65156 13.299 7.10625 12.0015 7.10625C10.704 7.10625 9.59151 6.65156 9.08901 6L4.22151 8.26172C4.02401 8.35547 3.94401 8.58047 4.04151 8.76562L5.47151 11.4492C5.57151 11.6344 5.81151 11.7094 6.00901 11.618L7.42401 10.9688C7.68901 10.8469 7.99901 11.0273 7.99901 11.3062V17.25C7.99901 17.6648 8.35651 18 8.79901 18H15.199C15.6415 18 15.999 17.6648 15.999 17.25V11.3039C15.999 11.0273 16.309 10.8445 16.574 10.9664L17.989 11.6156C18.1865 11.7094 18.4265 11.6344 18.5265 11.4469L19.959 8.76562C20.059 8.58047 19.979 8.35313 19.7815 8.26172Z" fill="#FFA000"/>
<ellipse cx="15" cy="17" rx="3" ry="2" fill="#FFECB3"/>
<path d="M14.6 16.01C14.7381 16.01 14.85 15.8981 14.85 15.76V15C14.85 14.8619 14.7381 14.75 14.6 14.75H13C11.7579 14.75 10.75 15.7579 10.75 17C10.75 18.2421 11.7579 19.25 13 19.25H14.6C14.7381 19.25 14.85 19.1381 14.85 19V18.24C14.85 18.1019 14.7381 17.99 14.6 17.99H13C12.4541 17.99 12.01 17.5459 12.01 17C12.01 16.4541 12.4541 16.01 13 16.01H14.6ZM13.15 17.4C13.15 17.5381 13.2619 17.65 13.4 17.65H16.6C16.7381 17.65 16.85 17.5381 16.85 17.4V16.6C16.85 16.4619 16.7381 16.35 16.6 16.35H13.4C13.2619 16.35 13.15 16.4619 13.15 16.6V17.4ZM15.4 14.75C15.2619 14.75 15.15 14.8619 15.15 15V15.76C15.15 15.8981 15.2619 16.01 15.4 16.01H17C17.5459 16.01 17.99 16.4541 17.99 17C17.99 17.5459 17.5459 17.99 17 17.99H15.4C15.2619 17.99 15.15 18.1019 15.15 18.24V19C15.15 19.1381 15.2619 19.25 15.4 19.25H17C18.2421 19.25 19.25 18.2421 19.25 17C19.25 15.7579 18.2421 14.75 17 14.75H15.4Z" fill="#FFA000" stroke="#FFECB3" stroke-width="0.5" stroke-linejoin="round"/>
</g>
<defs>
<clipPath id="clip0_792_4638">
<rect width="24" height="24" rx="12" fill="white"/>
</clipPath>
</defs>
</svg>
