<svg width="24" height="24" viewBox="0 0 24 24" fill="none" xmlns="http://www.w3.org/2000/svg">
<g clip-path="url(#clip0_790_4614)">
<rect width="24" height="24" rx="12" fill="#F0F4C3"/>
<path d="M11.9996 5C11.6364 5 11.2654 5.03158 10.8943 5.11053C8.71537 5.52895 6.97853 7.28947 6.568 9.46842C6.18905 11.5289 6.94695 13.4237 8.32063 14.6474C8.66011 14.9474 8.84169 15.3658 8.84169 15.8079V17.6316C8.84169 18.5 9.55221 19.2105 10.4206 19.2105H10.6417C10.918 19.6842 11.4154 20 11.9996 20C12.5838 20 13.0891 19.6842 13.3575 19.2105H13.5785C14.4469 19.2105 15.1575 18.5 15.1575 17.6316V15.8079C15.1575 15.3737 15.3312 14.9474 15.6627 14.6553C16.8075 13.6447 17.5259 12.1684 17.5259 10.5263C17.5259 7.47105 15.0548 5 11.9996 5ZM13.5785 17.6316H10.4206V16.8421H13.5785V17.6316ZM13.5785 16.0526H10.4206V15.2632H13.5785V16.0526ZM12.3943 11.6395V13.6842H11.6048V11.6395L10.1601 10.2026L10.7206 9.64211L11.9996 10.9211L13.2785 9.64211L13.8391 10.2026L12.3943 11.6395Z" fill="#AFB42B"/>
</g>
<defs>
<clipPath id="clip0_790_4614">
<rect width="24" height="24" rx="12" fill="white"/>
</clipPath>
</defs>
</svg>
